<svg width="229" height="252" viewBox="0 0 229 252" fill="none" xmlns="http://www.w3.org/2000/svg">
<path d="M0 48.2456C0 21.6003 23.6187 0 52.7539 0H176.246C205.381 0 229 21.6003 229 48.2456V201.754C229 228.4 205.381 250 176.246 250H52.7539C23.6187 250 0 228.4 0 201.754V48.2456Z" fill="#3B3131"/>
<mask id="mask0_402_6605" style="mask-type:alpha" maskUnits="userSpaceOnUse" x="48" y="6" width="156" height="239">
<path d="M99.719 243.866C105.632 244.501 112.35 244.456 119.873 243.73C131.269 242.59 140.763 240.569 148.357 237.666C143.653 231.871 137.634 225.544 130.138 219.194C127.516 216.974 125.055 214.636 122.765 212.237C118.453 212.949 115.299 211.751 113.302 208.643C111.199 205.279 108.689 199.688 105.772 191.871C102.948 183.046 95.1708 177.103 82.4386 174.043C79.1468 179.774 75.7352 186.403 72.754 193.242C69.2431 201.296 66.4042 209.471 65.0068 216.721C64.2611 220.59 63.9723 223.961 64.103 226.801C66.5276 229.306 69.1699 231.625 72.0299 233.761C75.5073 236.358 79.5588 238.519 84.1846 240.243C88.8104 241.967 93.9885 243.175 99.719 243.866Z" fill="#7C310A"/>
<path d="M55.4162 215.738C55.4784 215.389 55.5432 215.04 55.6105 214.691C57.21 206.393 60.3649 197.433 64.0466 188.987C66.5926 183.147 69.4265 177.47 72.2508 172.32C69.8484 172.058 67.3215 171.868 64.6699 171.75C57.5724 171.128 53.0243 172.601 51.0256 176.171C48.8005 179.635 47.9047 184.348 48.3382 190.311C49.2528 198.042 50.7713 204.719 52.8937 210.34C53.6018 212.2 54.4426 214 55.4162 215.738Z" fill="#7C310A"/>
<path d="M130.059 205.591C131.953 207.538 133.978 209.444 136.129 211.266C145.088 218.854 152.133 226.473 157.488 233.391C164.515 229.649 170.393 225.479 175.123 220.881C180.664 215.23 185.352 207.885 189.187 198.845C179.578 197.726 168.028 195.862 156.797 193.561C149.187 192.001 141.635 190.223 134.836 188.306C134.084 192.777 133.176 196.774 132.114 200.297C131.506 202.313 130.821 204.077 130.059 205.591Z" fill="#7C310A"/>
<path d="M136.194 178.178C142.989 180.135 150.726 181.975 158.619 183.592C170.837 186.096 183.195 188.02 192.807 189.038C195.583 180.417 197.785 170.726 199.413 159.964C198.819 159.442 198.215 158.963 197.604 158.531C194.795 156.549 189.012 154.5 181.013 152.323C176.384 151.062 171.418 149.856 166.297 148.613C162.714 147.742 159.055 146.854 155.384 145.916C149.148 144.322 142.957 142.603 137.561 140.663C137.703 152.904 137.375 164.057 136.577 174.123C136.459 175.506 136.332 176.858 136.194 178.178Z" fill="#7C310A"/>
<path d="M137.329 129.775C137.228 126.096 137.11 122.403 136.972 118.696C143.191 116.403 151.755 114.505 161.402 113.003C175.124 110.867 190.541 109.602 203.463 109.015C203.17 123.43 202.303 136.69 200.861 148.795C196.411 146.309 190.028 144.293 183.401 142.489C178.714 141.213 173.469 139.938 168.204 138.658C164.634 137.79 161.054 136.919 157.634 136.045C149.886 134.065 142.783 132.026 137.329 129.775Z" fill="#7C310A"/>
<path d="M203.573 98.847C190.258 99.4368 174.283 100.735 160.007 102.958C151.389 104.299 143.201 106.006 136.533 108.169C136.373 104.714 136.197 101.246 136.005 97.7667C135.205 83.9059 134.197 70.3698 132.98 57.1586C132.913 56.3001 132.846 55.4471 132.779 54.5997C145.452 57.0309 161.194 60.1563 175.46 63.2035C184.65 65.1664 193.192 67.0892 199.894 68.7679C201.001 69.0452 202.054 69.3147 203.047 69.5756C203.323 77.5889 203.492 85.3464 203.554 92.8482C203.57 94.8681 203.577 96.8677 203.573 98.847Z" fill="#7C310A"/>
<path d="M202.628 59.019C202.123 47.7501 201.416 36.0023 200.509 23.7757C200.489 21.5181 200.282 19.6657 199.889 18.2185C199.634 16.5548 198.967 15.1911 197.886 14.1276C196.987 13.0083 195.654 12.1088 193.886 11.4289C192.073 10.5882 189.578 9.78181 186.399 9.00959C180.31 7.73103 173.578 6.99696 166.203 6.80738C159.01 6.56209 152.497 6.63203 146.663 7.01722C140.646 7.45813 136.237 8.71503 133.436 10.7879C130.774 12.6442 129.55 16.1516 129.765 21.31C130.498 28.3367 131.215 35.9388 131.915 44.1163C145.034 46.6179 162.031 49.9768 177.357 53.2502C186.588 55.2219 195.248 57.1703 202.102 58.8868C202.278 58.931 202.454 58.975 202.628 59.019Z" fill="#7C310A"/>
</mask>
<g mask="url(#mask0_402_6605)">
<path d="M219.444 64.9536L125.941 52.769H120.746L94.7731 113.692L128.338 118.769L214.649 103.538L219.444 64.9536Z" fill="#F9B300"/>
<path d="M238.624 105.569L147.518 108.615L133.133 118.769L113.953 123.846L214.649 159.384L233.829 144.153L238.624 105.569Z" fill="#00F919"/>
<path d="M133.133 139.076L233.829 154.307L219.444 169.538L214.649 179.692L205.059 195.114L123.543 179.692L133.133 139.076Z" fill="#FFF628"/>
<path d="M133.133 184.769L233.829 199.999L219.444 215.23L214.649 225.384L185.879 260.922L118.748 205.076L133.133 184.769Z" fill="#FF2828"/>
<path d="M-5.9226 154.307L94.7731 169.538L80.388 184.769L75.5928 194.922L46.8228 230.461L-20.3077 174.615L-5.9226 154.307Z" fill="#283EFF"/>
<path d="M85.183 164.461L166.699 245.691H142.723L113.953 281.23L56.4128 225.384L85.183 164.461Z" fill="#283EFF"/>
<path d="M99.5681 7.0769L181.084 2L276.984 12.1538L272.189 73.0766L85.183 37.5383L99.5681 7.0769Z" fill="#B80791"/>
</g>
<g filter="url(#filter0_dd_402_6605)">
<path d="M68.9445 170.59C68.6234 168.889 63.7664 168.397 57.5527 169.493C67.3911 165.655 90.3831 163.842 79.8184 185.94C58.5884 230.348 75.1582 234.734 73.6048 235.282C72.0513 235.831 55.9993 219.932 53.9281 214.449C55.1363 209.88 55.6886 206.554 56.5171 203.484C57.5527 199.647 61.1774 190.875 65.3199 182.103C66.3023 180.022 69.4623 173.331 68.9445 170.59Z" fill="#D9D9D9"/>
<path d="M136.259 173.331C133.774 176.84 134.706 186.489 133.67 192.519V194.712V194.164L134.188 192.519C135.224 190.326 135.224 190.326 136.777 190.326C138.331 190.326 163.185 197.453 168.881 198.55C174.577 199.646 187.004 201.84 189.593 199.647C192.183 197.454 195.289 191.423 196.325 182.651C196.89 177.864 197.706 172.783 197.361 171.138C197.188 171.869 196.617 174.286 195.807 177.717C194.254 184.296 193.218 185.94 188.04 185.392C182.862 184.844 147.651 177.168 144.026 175.524C140.402 173.879 136.777 172.6 136.259 173.331Z" fill="#D9D9D9"/>
<path d="M138.122 127.17C135.121 125.184 136.259 147.015 137.604 149.1L138.331 146.467C139.884 142.629 177.164 152.061 186.278 155.131C195.391 158.201 198.36 161.344 199.223 162.258C200.776 160.065 201.501 159.517 202.33 150.745C203.366 139.78 202.33 135.394 201.812 139.721C201.287 144.106 199.223 144.656 197.152 144.656C195.081 144.656 173.765 138.084 167.119 135.942C155.209 132.105 142.264 129.912 138.122 127.17Z" fill="#D9D9D9"/>
<path d="M175.095 47.7825C165.153 45.151 140.92 39.7416 130.046 37.3659V55.458C130.046 56.189 131.496 57.7606 137.295 58.1992C143.094 58.6378 184.588 68.2504 204.61 73.0018C204.955 72.4536 205.646 70.4799 205.646 66.9711C205.646 62.5852 205.128 53.8132 203.574 54.3615C202.021 54.9097 187.522 51.072 175.095 47.7825Z" fill="#D9D9D9"/>
<path d="M212.895 31.8834H201.503V36.2694L212.895 31.8834Z" fill="#D9D9D9"/>
<path d="M191.665 96.0281C180.48 96.0281 149.722 101.511 135.742 104.252L136.259 120.699C136.777 120.516 136.674 119.932 140.402 119.054C145.062 117.958 175.613 112.476 190.111 111.379C204.61 110.283 203.056 111.927 204.092 111.379C205.128 110.831 204.092 103.155 204.61 99.3176C205.128 95.4799 205.646 96.0281 191.665 96.0281Z" fill="#D9D9D9"/>
<path d="M118.77 212.255C118.731 212.256 118.692 212.256 118.654 212.256C118.69 212.254 118.728 212.254 118.77 212.255C120.329 212.213 122.733 211.347 124.35 210.063C126.421 208.418 130.046 205.677 131.081 202.936C131.353 202.216 144.026 214.997 149.205 219.932C153.347 223.879 159.388 229.069 161.114 231.445C159.043 233.455 152.519 236.598 149.205 237.475C145.062 238.572 148.687 240.217 142.991 234.734C137.295 229.252 129.528 219.463 124.35 215.546C120.494 212.629 119.33 212.269 118.77 212.255Z" fill="#D9D9D9"/>
</g>
<defs>
<filter id="filter0_dd_402_6605" x="35.9281" y="24.8834" width="180.967" height="226.706" filterUnits="userSpaceOnUse" color-interpolation-filters="sRGB">
<feFlood flood-opacity="0" result="BackgroundImageFix"/>
<feColorMatrix in="SourceAlpha" type="matrix" values="0 0 0 0 0 0 0 0 0 0 0 0 0 0 0 0 0 0 127 0" result="hardAlpha"/>
<feOffset dx="-9" dy="4"/>
<feGaussianBlur stdDeviation="4.5"/>
<feComposite in2="hardAlpha" operator="out"/>
<feColorMatrix type="matrix" values="0 0 0 0 0 0 0 0 0 0 0 0 0 0 0 0 0 0 0.25 0"/>
<feBlend mode="normal" in2="BackgroundImageFix" result="effect1_dropShadow_402_6605"/>
<feColorMatrix in="SourceAlpha" type="matrix" values="0 0 0 0 0 0 0 0 0 0 0 0 0 0 0 0 0 0 127 0" result="hardAlpha"/>
<feOffset dy="-3"/>
<feGaussianBlur stdDeviation="2"/>
<feComposite in2="hardAlpha" operator="out"/>
<feColorMatrix type="matrix" values="0 0 0 0 0 0 0 0 0 0 0 0 0 0 0 0 0 0 0.25 0"/>
<feBlend mode="normal" in2="effect1_dropShadow_402_6605" result="effect2_dropShadow_402_6605"/>
<feBlend mode="normal" in="SourceGraphic" in2="effect2_dropShadow_402_6605" result="shape"/>
</filter>
</defs>
</svg>
