<svg width="182" height="252" viewBox="0 0 182 252" fill="none" xmlns="http://www.w3.org/2000/svg">
<path d="M181 31.5C178.5 28.5 175.636 28.3653 175.5 27.5C174.502 21.1246 175.5 13.5 161 4.5C156.611 4.14416 149.188 0.732051 144.15 0.310379C127.953 -1.04544 109.077 2.5 104.5 2.5C98.5 2.5 91 4.50002 91 14.5C91 15.5555 90.9613 17.3266 90.9162 19.3904C90.7992 24.7461 90.6391 32.0751 91 34C91.4225 42.8731 92.153 51.6256 92.7332 58.5774C93.0685 62.5942 93.3535 66.0098 93.5 68.5C93.6739 71.4563 94.0293 79.3729 94.4609 88.9878C95.2703 107.018 96.3478 131.022 97 139.5C98 152.5 95.5 188.5 92 195.5C88.5 202.5 83.5 203.5 81.5 201C81.0221 200.403 80.3443 198.892 79.4189 196.828C76.4717 190.258 71.013 178.088 61.5 172C49 164 37 162.5 33 162C29 161.5 10 163 5.5 174.5C0.999996 186 5 208 16.5 222.5C28 237 41.5 246 62 249C82.5 252 100.5 247.5 113 243C125.5 238.5 144 230.5 157 207C170 183.5 176 143 177 119.5C177.642 104.425 176.504 70.2311 175.598 43.0084C175.375 36.2822 177 34.5 181 31.5Z" fill="black"/>
<mask id="mask0_402_6605" style="mask-type:alpha" maskUnits="userSpaceOnUse" x="13" y="6" width="156" height="239">
<path d="M64.719 243.866C70.6323 244.501 77.3502 244.456 84.8729 243.73C96.2685 242.591 105.763 240.569 113.357 237.666C108.653 231.871 102.634 225.544 95.1377 219.194C92.5162 216.974 90.0546 214.636 87.7646 212.237C83.453 212.949 80.2986 211.751 78.3015 208.643C76.1991 205.279 73.6892 199.689 70.7718 191.871C67.9485 183.046 60.1708 177.103 47.4386 174.043C44.1468 179.774 40.7352 186.403 37.754 193.242C34.2431 201.296 31.4042 209.471 30.0068 216.721C29.2611 220.59 28.9723 223.961 29.103 226.802C31.5276 229.306 34.1699 231.625 37.0299 233.761C40.5073 236.358 44.5588 238.519 49.1846 240.243C53.8104 241.967 58.9885 243.175 64.719 243.866Z" fill="#7C310A"/>
<path d="M20.4162 215.738C20.4784 215.389 20.5432 215.04 20.6105 214.691C22.21 206.393 25.3649 197.433 29.0466 188.987C31.5926 183.147 34.4265 177.47 37.2508 172.32C34.8484 172.058 32.3215 171.868 29.6699 171.75C22.5724 171.128 18.0243 172.601 16.0256 176.171C13.8005 179.635 12.9047 184.348 13.3382 190.311C14.2528 198.042 15.7713 204.719 17.8937 210.34C18.6018 212.2 19.4426 214 20.4162 215.738Z" fill="#7C310A"/>
<path d="M95.0595 205.591C96.9526 207.538 98.9781 209.444 101.129 211.266C110.088 218.854 117.133 226.473 122.488 233.391C129.515 229.649 135.393 225.479 140.123 220.881C145.664 215.23 150.352 207.885 154.187 198.845C144.578 197.726 133.028 195.862 121.797 193.561C114.187 192.001 106.635 190.223 99.8365 188.306C99.0836 192.777 98.176 196.774 97.1136 200.297C96.5057 202.313 95.821 204.077 95.0595 205.591Z" fill="#7C310A"/>
<path d="M101.194 178.178C107.989 180.135 115.726 181.975 123.619 183.592C135.837 186.096 148.195 188.02 157.807 189.038C160.583 180.417 162.785 170.726 164.413 159.964C163.819 159.442 163.215 158.963 162.604 158.531C159.795 156.549 154.012 154.5 146.013 152.323C141.384 151.062 136.418 149.856 131.297 148.613C127.714 147.742 124.055 146.854 120.384 145.916C114.148 144.322 107.957 142.603 102.561 140.663C102.703 152.904 102.375 164.057 101.577 174.123C101.459 175.506 101.332 176.858 101.194 178.178Z" fill="#7C310A"/>
<path d="M102.329 129.775C102.228 126.096 102.11 122.403 101.972 118.696C108.191 116.403 116.755 114.505 126.402 113.003C140.124 110.867 155.541 109.602 168.463 109.015C168.17 123.43 167.303 136.69 165.861 148.795C161.411 146.309 155.028 144.293 148.401 142.489C143.714 141.213 138.469 139.938 133.204 138.658C129.634 137.79 126.054 136.919 122.634 136.045C114.886 134.065 107.783 132.026 102.329 129.775Z" fill="#7C310A"/>
<path d="M168.573 98.8471C155.258 99.4368 139.283 100.735 125.007 102.958C116.389 104.299 108.201 106.006 101.533 108.169C101.373 104.714 101.197 101.246 101.005 97.7667C100.205 83.9059 99.197 70.3699 97.9801 57.1586C97.9132 56.3001 97.8461 55.4472 97.7789 54.5997C110.452 57.0309 126.194 60.1563 140.46 63.2035C149.65 65.1664 158.192 67.0892 164.894 68.7679C166.001 69.0452 167.054 69.3147 168.047 69.5757C168.323 77.5889 168.492 85.3464 168.554 92.8483C168.57 94.8681 168.577 96.8677 168.573 98.8471Z" fill="#7C310A"/>
<path d="M167.628 59.019C167.123 47.7501 166.416 36.0023 165.509 23.7758C165.489 21.5182 165.282 19.6658 164.889 18.2185C164.634 16.5548 163.967 15.1911 162.886 14.1276C161.987 13.0083 160.654 12.1088 158.886 11.4289C157.073 10.5883 154.578 9.78182 151.399 9.0096C145.31 7.73105 138.578 6.99698 131.203 6.8074C124.01 6.5621 117.497 6.63205 111.663 7.01724C105.646 7.45815 101.237 8.71504 98.4359 10.7879C95.7735 12.6443 94.5498 16.1516 94.7647 21.31C95.498 28.3367 96.2147 35.9388 96.9151 44.1163C110.034 46.6179 127.031 49.9768 142.357 53.2502C151.588 55.2219 160.248 57.1703 167.102 58.8868C167.278 58.931 167.454 58.9751 167.628 59.019Z" fill="#7C310A"/>
</mask>
<g mask="url(#mask0_402_6605)">
<path d="M184.444 64.9536L90.9408 52.769H85.7462L59.7731 113.692L93.3383 118.769L179.649 103.538L184.444 64.9536Z" fill="#F9B300"/>
<path d="M203.624 105.569L112.518 108.615L98.1333 118.769L78.9532 123.846L179.649 159.384L198.829 144.153L203.624 105.569Z" fill="#00F919"/>
<path d="M98.1333 139.076L198.829 154.307L184.444 169.538L179.649 179.692L170.059 195.114L88.5433 179.692L98.1333 139.076Z" fill="#FFF628"/>
<path d="M98.1333 184.769L198.829 199.999L184.444 215.23L179.649 225.384L150.879 260.922L83.7482 205.076L98.1333 184.769Z" fill="#FF2828"/>
<path d="M-40.9226 154.307L59.7731 169.538L45.388 184.769L40.5928 194.922L11.8228 230.461L-55.3077 174.615L-40.9226 154.307Z" fill="#283EFF"/>
<path d="M50.183 164.461L131.699 245.691H107.723L78.9532 281.23L21.4128 225.384L50.183 164.461Z" fill="#283EFF"/>
<path d="M64.5681 7.07692L146.084 2.00002L241.984 12.1538L237.189 73.0767L50.183 37.5383L64.5681 7.07692Z" fill="#B80791"/>
</g>
<g filter="url(#filter0_dd_402_6605)">
<path d="M33.9445 170.59C33.6234 168.89 28.7664 168.397 22.5527 169.493C32.3911 165.655 55.3831 163.842 44.8184 185.94C23.5884 230.348 40.1582 234.734 38.6048 235.283C37.0513 235.831 20.9993 219.932 18.9281 214.449C20.1363 209.88 20.6886 206.554 21.5171 203.484C22.5527 199.647 26.1774 190.875 30.3199 182.103C31.3023 180.022 34.4623 173.331 33.9445 170.59Z" fill="#D9D9D9"/>
<path d="M101.259 173.331C98.7739 176.84 99.706 186.489 98.6704 192.519V194.712V194.164L99.1882 192.519C100.224 190.326 100.224 190.326 101.777 190.326C103.331 190.326 128.185 197.454 133.881 198.55C139.577 199.646 152.004 201.84 154.593 199.647C157.183 197.454 160.289 191.423 161.325 182.651C161.89 177.864 162.706 172.783 162.361 171.138C162.188 171.869 161.617 174.286 160.807 177.717C159.254 184.296 158.218 185.94 153.04 185.392C147.862 184.844 112.651 177.168 109.026 175.524C105.402 173.879 101.777 172.6 101.259 173.331Z" fill="#D9D9D9"/>
<path d="M103.122 127.17C100.121 125.184 101.259 147.015 102.604 149.1L103.331 146.467C104.884 142.629 142.164 152.061 151.278 155.131C160.391 158.201 163.36 161.344 164.223 162.258C165.776 160.065 166.501 159.517 167.33 150.745C168.366 139.78 167.33 135.394 166.812 139.721C166.287 144.106 164.223 144.656 162.152 144.656C160.081 144.656 138.765 138.084 132.119 135.942C120.209 132.105 107.264 129.912 103.122 127.17Z" fill="#D9D9D9"/>
<path d="M140.095 47.7826C130.153 45.151 105.92 39.7416 95.0457 37.3659V55.458C95.0457 56.189 96.4956 57.7606 102.295 58.1992C108.094 58.6378 149.588 68.2504 169.61 73.0018C169.955 72.4536 170.646 70.4799 170.646 66.9711C170.646 62.5852 170.128 53.8133 168.574 54.3615C167.021 54.9097 152.522 51.072 140.095 47.7826Z" fill="#D9D9D9"/>
<path d="M177.895 31.8834H166.503V36.2694L177.895 31.8834Z" fill="#D9D9D9"/>
<path d="M156.665 96.0282C145.48 96.0282 114.722 101.511 100.742 104.252L101.259 120.699C101.777 120.516 101.674 119.932 105.402 119.054C110.062 117.958 140.613 112.476 155.111 111.379C169.61 110.283 168.056 111.927 169.092 111.379C170.128 110.831 169.092 103.155 169.61 99.3176C170.128 95.4799 170.646 96.0282 156.665 96.0282Z" fill="#D9D9D9"/>
<path d="M83.7698 212.255C83.7306 212.256 83.692 212.256 83.654 212.256C83.6898 212.254 83.7281 212.254 83.7698 212.255C85.3287 212.213 87.7334 211.347 89.3498 210.063C91.4211 208.419 95.0457 205.677 96.0813 202.936C96.3533 202.216 109.026 214.997 114.205 219.932C118.347 223.879 124.388 229.069 126.114 231.445C124.043 233.455 117.519 236.598 114.205 237.475C110.062 238.572 113.687 240.217 107.991 234.734C102.295 229.252 94.5279 219.463 89.3498 215.546C85.4941 212.629 84.33 212.269 83.7698 212.255Z" fill="#D9D9D9"/>
</g>
<defs>
<filter id="filter0_dd_402_6605" x="0.928101" y="24.8834" width="180.967" height="226.706" filterUnits="userSpaceOnUse" color-interpolation-filters="sRGB">
<feFlood flood-opacity="0" result="BackgroundImageFix"/>
<feColorMatrix in="SourceAlpha" type="matrix" values="0 0 0 0 0 0 0 0 0 0 0 0 0 0 0 0 0 0 127 0" result="hardAlpha"/>
<feOffset dx="-9" dy="4"/>
<feGaussianBlur stdDeviation="4.5"/>
<feComposite in2="hardAlpha" operator="out"/>
<feColorMatrix type="matrix" values="0 0 0 0 0 0 0 0 0 0 0 0 0 0 0 0 0 0 0.25 0"/>
<feBlend mode="normal" in2="BackgroundImageFix" result="effect1_dropShadow_402_6605"/>
<feColorMatrix in="SourceAlpha" type="matrix" values="0 0 0 0 0 0 0 0 0 0 0 0 0 0 0 0 0 0 127 0" result="hardAlpha"/>
<feOffset dy="-3"/>
<feGaussianBlur stdDeviation="2"/>
<feComposite in2="hardAlpha" operator="out"/>
<feColorMatrix type="matrix" values="0 0 0 0 0 0 0 0 0 0 0 0 0 0 0 0 0 0 0.25 0"/>
<feBlend mode="normal" in2="effect1_dropShadow_402_6605" result="effect2_dropShadow_402_6605"/>
<feBlend mode="normal" in="SourceGraphic" in2="effect2_dropShadow_402_6605" result="shape"/>
</filter>
</defs>
</svg>
